<svg width="10" height="10" viewBox="0 0 10 10" fill="none" xmlns="http://www.w3.org/2000/svg">
<path d="M8.99992 5.66634H5.66659V8.99968C5.66659 9.36634 5.36659 9.66634 4.99992 9.66634C4.63325 9.66634 4.33325 9.36634 4.33325 8.99968V5.66634H0.999919C0.633252 5.66634 0.333252 5.36634 0.333252 4.99968C0.333252 4.63301 0.633252 4.33301 0.999919 4.33301H4.33325V0.999675C4.33325 0.633008 4.63325 0.333008 4.99992 0.333008C5.36659 0.333008 5.66659 0.633008 5.66659 0.999675V4.33301H8.99992C9.36659 4.33301 9.66659 4.63301 9.66659 4.99968C9.66659 5.36634 9.36659 5.66634 8.99992 5.66634Z" fill="white"/>
</svg>
