<svg width="112" height="22" viewBox="0 0 112 22" fill="none" xmlns="http://www.w3.org/2000/svg">
<path d="M0 18.3468L2.92644 15.7789C3.42818 16.2634 4.13664 16.693 5.05183 17.0677C5.96701 17.4424 6.88005 17.6297 7.79093 17.6297C8.79655 17.6297 9.57608 17.4488 10.1295 17.0871C10.6829 16.7253 10.9596 16.1956 10.9596 15.4979C10.9596 15.1663 10.8455 14.8508 10.6172 14.5515C10.3868 14.2543 10.0778 13.9819 9.69021 13.7343C9.3026 13.4866 8.85685 13.2401 8.35296 12.9946C7.85122 12.7469 7.32149 12.4971 6.76376 12.2452C6.20604 11.9954 5.65047 11.7338 5.09705 11.4603C4.54363 11.189 4.0139 10.8821 3.50785 10.5397C2.99966 10.1995 2.55175 9.83556 2.16415 9.44795C1.77654 9.06034 1.46645 8.60921 1.23389 8.09455C0.999168 7.5799 0.881809 7.02863 0.881809 6.44076C0.881809 5.37483 1.16928 4.3509 1.74424 3.36896C2.31919 2.38487 3.13209 1.57735 4.18294 0.94641C5.23594 0.31547 6.388 0 7.63911 0C8.95052 0 10.3007 0.285323 11.6896 0.855969C13.0764 1.42661 14.1154 2.18891 14.8066 3.14286L11.7639 5.46851C11.2277 4.89786 10.7044 4.53394 10.1941 4.37674C9.68375 4.21955 8.97636 4.13233 8.07194 4.11511C8.05687 4.11511 8.04072 4.11511 8.02349 4.11511C7.18798 4.11511 6.51505 4.32829 6.0047 4.75466C5.47712 5.18749 5.20902 5.71507 5.20041 6.3374C5.20041 6.60226 5.31885 6.85421 5.55572 7.09323C5.79474 7.3301 6.11452 7.55298 6.51505 7.76186C6.91558 7.97073 7.37532 8.18176 7.89429 8.39495C8.41325 8.60813 8.96236 8.83639 9.54162 9.07972C10.1209 9.3209 10.698 9.58039 11.2729 9.85817C11.8479 10.1338 12.3948 10.4547 12.9138 10.8207C13.4349 11.1868 13.8958 11.5809 14.2963 12.0029C14.6947 12.425 15.0134 12.9214 15.2524 13.492C15.4914 14.0626 15.6109 14.6764 15.6109 15.3331C15.6109 15.5442 15.5851 15.752 15.5334 15.9565C15.4322 16.9794 15.0295 17.9506 14.3254 18.8701C13.6234 19.7896 12.7017 20.5325 11.5604 21.0988C10.4191 21.6651 9.2057 21.9483 7.92013 21.9483C6.59149 21.9483 5.18211 21.5844 3.69197 20.8566C2.20183 20.1287 0.971174 19.2921 0 18.3468ZM17.0677 14.2575C17.0677 13.0236 17.3595 11.849 17.943 10.7335C18.5266 9.61807 19.3115 8.69319 20.2978 7.95889C21.2862 7.22674 22.3553 6.77991 23.5052 6.61841L23.9025 6.54089C24.0812 6.52582 24.2772 6.51828 24.4904 6.51828C24.7875 6.51828 25.1149 6.53443 25.4723 6.56673C26.605 6.66148 27.5891 6.9328 28.4246 7.38071C29.2601 7.82646 29.792 8.2539 30.0203 8.66304C30.1408 9.10664 30.2011 9.62991 30.2011 10.2329C30.1925 10.2587 30.1882 10.2802 30.1882 10.2975C30.1882 10.9284 30.1322 11.3881 30.0203 11.6767L26.7256 11.3085L26.5221 10.9112C26.4446 10.81 26.3552 10.7077 26.254 10.6043C25.8362 10.4084 25.3636 10.3104 24.836 10.3104C24.681 10.3104 24.5184 10.319 24.3483 10.3362C23.4891 10.4805 22.7914 10.9047 22.2552 11.6089C21.7168 12.3109 21.4433 13.1851 21.4347 14.2317C21.4347 15.2718 21.7039 16.1385 22.2423 16.8319C22.7784 17.5274 23.4804 17.9516 24.3483 18.1045C24.527 18.139 24.7057 18.1519 24.8844 18.1433C25.2591 18.1433 25.6467 18.0787 26.0473 17.9495C26.8914 17.7794 27.5514 17.3799 28.0273 16.7511L30.7503 18.5761C30.5026 19.0025 30.1021 19.4924 29.5487 20.0458C29.174 20.4033 28.6604 20.737 28.0079 21.0471C27.3576 21.3594 26.6405 21.5833 25.8567 21.719C25.3291 21.8374 24.8134 21.8966 24.3095 21.8966C24.0382 21.8966 23.7701 21.8805 23.5052 21.8482C21.7416 21.5919 20.2278 20.7295 18.9637 19.2609C17.6997 17.7901 17.0677 16.1224 17.0677 14.2575ZM36.4998 21.7448H32.2329V6.61841H36.4998V21.7448ZM32.2942 1.9445C32.4471 1.57843 32.726 1.26726 33.1308 1.01101C33.5356 0.754759 33.9728 0.626634 34.4422 0.626634C34.9784 0.626634 35.5189 0.759066 36.0637 1.02393C36.3027 1.5429 36.4223 2.10924 36.4223 2.72295C36.4223 3.32805 36.3027 3.903 36.0637 4.4478C35.5017 4.69544 34.9052 4.81926 34.2743 4.81926C33.7036 4.81926 33.1631 4.69544 32.6528 4.4478C32.4137 3.56923 32.2942 2.73479 32.2942 1.9445ZM43.396 21.7448H39.0548V6.59257H42.7209V7.33549C43.6834 6.75623 44.7817 6.4666 46.0156 6.4666C47.0556 6.4666 47.9568 6.61087 48.7191 6.89943C49.4814 7.19013 50.1511 7.70156 50.7282 8.43371C51.3936 7.69295 52.0902 7.17937 52.8181 6.89297C53.5459 6.60872 54.417 6.4666 55.4312 6.4666C55.4484 6.4666 55.4657 6.4666 55.4829 6.4666C57.4575 6.4666 59.0586 7.00279 60.286 8.07517C61.5113 9.15617 62.1713 10.6 62.266 12.4067C62.3005 12.8998 62.3177 13.2831 62.3177 13.5566V21.7448H58.1025V14.6807C58.1025 14.0756 58.0766 13.4834 58.025 12.9041C57.8958 11.1168 57.0312 10.2102 55.4312 10.1844C54.6302 10.1844 54.0143 10.4116 53.5836 10.866C53.1551 11.3225 52.9107 12.0277 52.8504 12.9816L52.8762 21.7448H48.6093L48.5835 13.0075C48.4823 11.1254 47.6263 10.1844 46.0156 10.1844C45.2059 10.1844 44.5803 10.4116 44.1389 10.866C43.6953 11.3225 43.4563 12.0019 43.4218 12.9041L43.396 21.7448ZM63.978 14.2317C63.978 13.1076 64.189 12.0568 64.6111 11.0791C65.031 10.0993 65.5887 9.2746 66.2842 8.6049C66.9776 7.93736 67.7733 7.41408 68.6713 7.03509C69.5714 6.6561 70.5027 6.4666 71.4653 6.4666C73.8663 6.4666 75.7139 7.25796 77.0081 8.8407C78.3022 10.4256 78.9493 12.6231 78.9493 15.4333H68.3224C68.4495 16.2429 68.8349 16.9245 69.4788 17.4779C70.1205 18.0313 70.872 18.3468 71.7334 18.4243C71.869 18.4415 72.009 18.4502 72.1533 18.4502C72.6722 18.4502 73.1794 18.3479 73.6746 18.1433C74.3034 17.887 74.8052 17.4994 75.1798 16.9805L78.6812 17.7718C78.4422 18.3166 78.144 18.8216 77.7865 19.2867C77.4291 19.7497 76.9779 20.1944 76.4331 20.6208C75.8883 21.0471 75.2132 21.3831 74.4079 21.6285C73.6025 21.8762 72.7196 22 71.7592 22C70.788 22 69.8384 21.817 68.9103 21.4509C67.98 21.0848 67.1488 20.5755 66.4167 19.9231C65.6845 19.2727 65.0956 18.4512 64.6498 17.4585C64.2019 16.4658 63.978 15.3902 63.978 14.2317ZM68.3967 12.5585H74.7858C74.7169 11.835 74.3777 11.1879 73.7683 10.6172C73.161 10.0466 72.4181 9.76127 71.5396 9.76127C70.6976 9.76127 69.9977 10.0229 69.44 10.5462C68.8823 11.0716 68.5345 11.7424 68.3967 12.5585ZM81.8241 10.656H79.7278V7.06739H81.8241V2.44193H86.0652V7.06739H88.9658V10.656H86.0652V14.8066C86.0652 15.2244 86.0738 15.5312 86.091 15.7272C86.1427 16.8771 86.4625 17.5414 87.0504 17.7202C87.2291 17.7891 87.4186 17.8278 87.6188 17.8364C87.8191 17.8451 88.0323 17.8364 88.2584 17.8106C88.4824 17.7848 88.6288 17.7718 88.6977 17.7718L89.3631 21.4896C89.2942 21.4896 88.8721 21.5446 88.0969 21.6544C87.5693 21.7319 87.0837 21.7707 86.6401 21.7707C86.4356 21.7707 86.2439 21.7621 86.0652 21.7448C83.3993 21.439 82.0028 19.6927 81.8758 16.5057C81.8586 16.1568 81.8499 15.6163 81.8499 14.8842L81.8241 10.656ZM95.9653 21.7448H91.6984V6.61841H95.9653V21.7448ZM91.763 1.9445C91.9159 1.57843 92.1948 1.26726 92.5996 1.01101C93.0045 0.754759 93.4416 0.626634 93.911 0.626634C94.4472 0.626634 94.9877 0.759066 95.5325 1.02393C95.7715 1.5429 95.8911 2.10924 95.8911 2.72295C95.8911 3.32805 95.7715 3.903 95.5325 4.4478C94.9705 4.69544 94.374 4.81926 93.7431 4.81926C93.1724 4.81926 92.6319 4.69544 92.1216 4.4478C91.8825 3.56923 91.763 2.73479 91.763 1.9445ZM97.9454 14.2575C97.9454 13.0236 98.2372 11.849 98.8207 10.7335C99.4043 9.61807 100.19 8.69319 101.179 7.95889C102.167 7.22674 103.236 6.77991 104.386 6.61841L104.78 6.54089C104.959 6.52582 105.155 6.51828 105.368 6.51828C105.667 6.51828 105.996 6.53443 106.353 6.56673C107.486 6.66148 108.47 6.9328 109.306 7.38071C110.139 7.82646 110.671 8.2539 110.901 8.66304C111.02 9.10664 111.079 9.62991 111.079 10.2329C111.07 10.2587 111.066 10.2802 111.066 10.2975C111.066 10.9284 111.011 11.3881 110.901 11.6767L107.603 11.3085L107.4 10.9112C107.324 10.81 107.235 10.7077 107.132 10.6043C106.714 10.4084 106.241 10.3104 105.714 10.3104C105.561 10.3104 105.399 10.319 105.229 10.3362C104.368 10.4805 103.669 10.9047 103.133 11.6089C102.597 12.3109 102.324 13.1851 102.316 14.2317C102.316 15.2718 102.584 16.1385 103.12 16.8319C103.656 17.5274 104.359 17.9516 105.229 18.1045C105.408 18.139 105.587 18.1519 105.765 18.1433C106.14 18.1433 106.528 18.0787 106.928 17.9495C107.77 17.7794 108.43 17.3799 108.908 16.7511L111.628 18.5761C111.382 19.0025 110.983 19.4924 110.43 20.0458C110.055 20.4033 109.541 20.737 108.889 21.0471C108.236 21.3594 107.519 21.5833 106.738 21.719C106.208 21.8374 105.692 21.8966 105.19 21.8966C104.917 21.8966 104.649 21.8805 104.386 21.8482C102.623 21.5919 101.109 20.7295 99.8447 19.2609C98.5785 17.7901 97.9454 16.1224 97.9454 14.2575Z" fill="#004821"/>
</svg>
