<svg width="77" height="76" viewBox="0 0 77 76" fill="none" xmlns="http://www.w3.org/2000/svg">
<path d="M26.748 29.6005H3.67929C2.81566 29.6005 2.04984 30.1568 1.78255 30.9787C1.51547 31.7996 1.80841 32.7001 2.50684 33.2076L22.7452 47.9117L13.0448 73.9319C28.1061 63.429 38.8522 52.9078 41.1044 50.033C46.8431 42.7071 58.6501 23.5764 38.3217 1.68399C18.6196 22.902 28.4706 40.5205 34.6275 48.0035" fill="white"/>
<path d="M3.6794 31.2846C3.54451 31.2846 3.4261 31.3702 3.38397 31.4993C3.34244 31.6272 3.38776 31.7665 3.49707 31.8457L23.7354 46.5489C24.3471 46.9937 24.5874 47.7913 24.3231 48.4999L16.5531 69.3431C29.4524 59.8245 38.0899 51.15 39.7787 48.9948C46.4854 40.4332 55.0192 23.3921 38.3203 4.20024C30.1959 13.4915 27.8744 21.9722 28.3668 29.1332C28.4093 29.2812 28.432 29.4379 28.432 29.6006C28.432 29.6678 28.4284 29.7339 28.4208 29.7985C29.1097 37.1346 32.7211 43.0356 35.9284 46.9335C36.5189 47.6513 36.4159 48.7125 35.6973 49.3034C34.9798 49.895 33.9181 49.7911 33.3274 49.0727C30.4903 45.6251 26.3582 39.3798 25.2643 31.2846H3.6794ZM13.0452 75.6165C12.6801 75.6165 12.3165 75.4978 12.0132 75.2636C11.431 74.8125 11.2099 74.0344 11.4668 73.3438L20.7206 48.5221L1.5171 34.5701C0.223908 33.63 -0.312357 31.9775 0.181563 30.4577C0.675647 28.938 2.08107 27.9166 3.6794 27.9166H24.9979C24.816 20.0079 27.7132 10.6342 37.0882 0.538399C37.4063 0.195206 37.8538 1.52588e-05 38.3218 1.52588e-05C38.7901 1.52588e-05 39.2369 0.195206 39.5559 0.538399C48.6904 10.3751 52.5935 20.807 51.1573 31.5443C50.26 38.2547 47.3236 44.8248 42.4303 51.0716C39.7675 54.4695 28.698 65.0686 14.0078 75.3134C13.7185 75.5156 13.3812 75.6165 13.0452 75.6165Z" fill="#004821"/>
<path d="M76.4698 30.4611C75.9759 28.9414 74.5701 27.92 72.9723 27.92H53.8037C53.7809 29.0385 53.7023 30.1613 53.5706 31.288H72.9723C73.1067 31.288 73.2255 31.3736 73.2672 31.5027C73.3084 31.6306 73.264 31.7694 73.1544 31.8491L52.9167 46.5523C52.3263 46.9814 52.0791 47.7413 52.3051 48.4353L60.0349 72.2264C60.0761 72.3543 60.0311 72.4936 59.9221 72.5725C59.8549 72.6233 59.7861 72.633 59.74 72.633C59.6939 72.633 59.625 72.6233 59.5578 72.5735L39.3195 57.8698C39.2982 57.8545 39.2751 57.8452 39.2534 57.8312C38.5213 58.535 37.7252 59.282 36.8708 60.0677C36.9856 60.2682 37.1405 60.45 37.3396 60.5935L57.5772 75.2979C58.21 75.7577 58.9576 76 59.74 76C60.5213 76 61.2694 75.7581 61.9027 75.2979C63.1947 74.3578 63.7315 72.7052 63.2375 71.1865L55.8857 48.5586L75.1339 34.5735C76.427 33.6339 76.9643 31.9814 76.4698 30.4611Z" fill="#004821"/>
<path d="M44.2932 52.529C43.4233 53.6387 41.6894 55.4902 39.2532 57.8313C39.2748 57.8453 39.2979 57.8546 39.3193 57.8698L59.5575 72.5735C59.6248 72.6233 59.6936 72.6331 59.7397 72.6331C59.7858 72.6331 59.8547 72.6233 59.9219 72.5725C60.0309 72.4937 60.0759 72.3543 60.0347 72.2264L52.3049 48.4353C52.0788 47.7413 52.326 46.9814 52.9165 46.5524L73.1542 31.8491C73.2637 31.7694 73.3082 31.6306 73.267 31.5027C73.2252 31.3737 73.1065 31.288 72.972 31.288H53.5703C53.5475 31.4783 53.5269 31.6691 53.502 31.8605C52.5478 38.9934 49.4493 45.9473 44.2932 52.529Z" fill="white"/>
<path d="M38.3261 25.9815C37.9811 25.9815 37.6367 25.8498 37.3732 25.5868C36.8476 25.0609 36.8476 24.2081 37.3732 23.6811L46.3276 14.7271C46.8535 14.2017 47.7058 14.2017 48.2328 14.7271C48.7587 15.2535 48.7587 16.1064 48.2328 16.6328L39.2789 25.5868C39.0156 25.8498 38.6711 25.9815 38.3261 25.9815Z" fill="#004821"/>
<path d="M38.3263 39.8762C37.9813 39.8762 37.637 39.745 37.3735 39.482C36.8478 38.9561 36.8478 38.1027 37.3735 37.5768L49.049 25.9017C49.5744 25.3757 50.4277 25.3757 50.9531 25.9017C51.4801 26.4276 51.4801 27.2804 50.9531 27.8069L39.2792 39.482C39.0159 39.745 38.6713 39.8762 38.3263 39.8762Z" fill="#004821"/>
<path d="M38.3249 44.7897C37.581 44.7897 36.9778 44.1868 36.9778 43.4424V2.79614C36.9778 2.05227 37.581 1.44884 38.3249 1.44884C39.0687 1.44884 39.6721 2.05227 39.6721 2.79614V43.4424C39.6721 44.1868 39.0687 44.7897 38.3249 44.7897Z" fill="#004821"/>
</svg>
