<svg width="104" height="30" viewBox="0 0 104 30" fill="none" xmlns="http://www.w3.org/2000/svg">
<path d="M34.4683 18.0221L36.2708 16.4404C36.5798 16.7389 37.0162 17.0035 37.5799 17.2342C38.1435 17.465 38.7059 17.5804 39.267 17.5804C39.8864 17.5804 40.3665 17.469 40.7074 17.2462C41.0482 17.0234 41.2187 16.6971 41.2187 16.2673C41.2187 16.0631 41.1484 15.8688 41.0078 15.6844C40.8659 15.5014 40.6755 15.3336 40.4368 15.1811C40.198 15.0285 39.9235 14.8767 39.6131 14.7255C39.3041 14.5729 38.9778 14.4191 38.6343 14.2639C38.2908 14.1101 37.9486 13.9489 37.6077 13.7805C37.2668 13.6133 36.9406 13.4243 36.6289 13.2134C36.3159 13.0039 36.04 12.7797 35.8012 12.541C35.5625 12.3023 35.3715 12.0244 35.2283 11.7074C35.0837 11.3904 35.0114 11.0509 35.0114 10.6888C35.0114 10.0322 35.1885 9.40155 35.5426 8.79674C35.8967 8.1906 36.3974 7.69322 37.0447 7.30461C37.6933 6.91599 38.4028 6.72168 39.1735 6.72168C39.9812 6.72168 40.8128 6.89742 41.6683 7.2489C42.5225 7.60038 43.1624 8.0699 43.5882 8.65747L41.7141 10.0899C41.3838 9.73844 41.0615 9.51429 40.7472 9.41746C40.4328 9.32064 39.9971 9.26692 39.44 9.25631C39.4308 9.25631 39.4208 9.25631 39.4102 9.25631C38.8956 9.25631 38.4811 9.38762 38.1668 9.65024C37.8418 9.91683 37.6767 10.2418 37.6714 10.6251C37.6714 10.7882 37.7443 10.9434 37.8902 11.0906C38.0374 11.2365 38.2344 11.3738 38.4811 11.5025C38.7278 11.6311 39.011 11.7611 39.3306 11.8924C39.6503 12.0237 39.9885 12.1643 40.3453 12.3142C40.7021 12.4627 41.0575 12.6226 41.4116 12.7937C41.7658 12.9634 42.1027 13.1611 42.4223 13.3865C42.7433 13.612 43.0271 13.8547 43.2738 14.1147C43.5192 14.3747 43.7155 14.6804 43.8627 15.0319C44.0099 15.3833 44.0836 15.7613 44.0836 16.1659C44.0836 16.2959 44.0676 16.4239 44.0358 16.5499C43.9735 17.1799 43.7254 17.778 43.2917 18.3444C42.8593 18.9107 42.2917 19.3683 41.5887 19.7172C40.8858 20.066 40.1384 20.2404 39.3465 20.2404C38.5282 20.2404 37.6601 20.0162 36.7423 19.5679C35.8244 19.1196 35.0664 18.6044 34.4683 18.0221ZM44.9808 15.5034C44.9808 14.7434 45.1605 14.0199 45.52 13.3328C45.8794 12.6458 46.3629 12.0761 46.9703 11.6238C47.5791 11.1729 48.2377 10.8977 48.9459 10.7982L49.1906 10.7504C49.3007 10.7412 49.4214 10.7365 49.5527 10.7365C49.7358 10.7365 49.9374 10.7465 50.1575 10.7664C50.8552 10.8247 51.4613 10.9918 51.9759 11.2677C52.4906 11.5423 52.8182 11.8055 52.9588 12.0575C53.033 12.3308 53.0702 12.6531 53.0702 13.0244C53.0649 13.0404 53.0622 13.0536 53.0622 13.0642C53.0622 13.4529 53.0277 13.736 52.9588 13.9138L50.9295 13.687L50.8041 13.4422C50.7564 13.3799 50.7013 13.3169 50.639 13.2532C50.3817 13.1325 50.0906 13.0722 49.7656 13.0722C49.6701 13.0722 49.57 13.0775 49.4652 13.0881C48.936 13.177 48.5062 13.4383 48.176 13.872C47.8444 14.3044 47.676 14.8429 47.6706 15.4875C47.6706 16.1281 47.8364 16.6619 48.168 17.089C48.4983 17.5174 48.9307 17.7787 49.4652 17.8729C49.5753 17.8941 49.6854 17.9021 49.7954 17.8968C50.0262 17.8968 50.265 17.857 50.5117 17.7774C51.0316 17.6726 51.4381 17.4266 51.7312 17.0393L53.4084 18.1633C53.2559 18.426 53.0092 18.7277 52.6683 19.0686C52.4375 19.2887 52.1212 19.4943 51.7193 19.6853C51.3187 19.8776 50.8771 20.0156 50.3943 20.0991C50.0693 20.1721 49.7517 20.2086 49.4413 20.2086C49.2742 20.2086 49.1091 20.1986 48.9459 20.1787C47.8596 20.0209 46.9272 19.4897 46.1487 18.5851C45.3701 17.6792 44.9808 16.652 44.9808 15.5034ZM56.9497 20.1151H54.3216V10.7982H56.9497V20.1151ZM54.3594 7.91936C54.4535 7.69389 54.6253 7.50223 54.8747 7.3444C55.124 7.18656 55.3933 7.10764 55.6824 7.10764C56.0127 7.10764 56.3456 7.18921 56.6811 7.35235C56.8284 7.672 56.902 8.02083 56.902 8.39884C56.902 8.77154 56.8284 9.12567 56.6811 9.46123C56.335 9.61376 55.9676 9.69003 55.5789 9.69003C55.2275 9.69003 54.8946 9.61376 54.5802 9.46123C54.433 8.92009 54.3594 8.40613 54.3594 7.91936ZM61.1973 20.1151H58.5234V10.7823H60.7815V11.2399C61.3744 10.8831 62.0508 10.7047 62.8108 10.7047C63.4514 10.7047 64.0065 10.7935 64.476 10.9713C64.9456 11.1503 65.358 11.4653 65.7135 11.9163C66.1233 11.46 66.5524 11.1437 67.0007 10.9673C67.449 10.7922 67.9855 10.7047 68.6102 10.7047C68.6208 10.7047 68.6314 10.7047 68.6421 10.7047C69.8583 10.7047 70.8444 11.0349 71.6005 11.6955C72.3551 12.3613 72.7617 13.2506 72.82 14.3634C72.8412 14.6671 72.8519 14.9032 72.8519 15.0716V20.1151H70.2556V15.764C70.2556 15.3913 70.2396 15.0266 70.2078 14.6698C70.1282 13.5689 69.5957 13.0105 68.6102 12.9946C68.1168 12.9946 67.7375 13.1345 67.4722 13.4144C67.2083 13.6956 67.0577 14.1299 67.0206 14.7175L67.0365 20.1151H64.4084L64.3925 14.7334C64.3301 13.5742 63.8029 12.9946 62.8108 12.9946C62.3121 12.9946 61.9268 13.1345 61.6549 13.4144C61.3817 13.6956 61.2345 14.114 61.2132 14.6698L61.1973 20.1151ZM73.8745 15.4875C73.8745 14.7951 74.0045 14.1479 74.2644 13.5457C74.523 12.9422 74.8666 12.4342 75.295 12.0217C75.7221 11.6106 76.2121 11.2883 76.7652 11.0548C77.3196 10.8214 77.8933 10.7047 78.4862 10.7047C79.965 10.7047 81.103 11.1921 81.9001 12.167C82.6973 13.1432 83.0958 14.4967 83.0958 16.2276H76.5504C76.6286 16.7263 76.866 17.146 77.2626 17.4869C77.6579 17.8278 78.1207 18.0221 78.6513 18.0698C78.7348 18.0805 78.8211 18.0858 78.9099 18.0858C79.2296 18.0858 79.5419 18.0228 79.847 17.8968C80.2343 17.7389 80.5433 17.5002 80.7741 17.1805L82.9307 17.668C82.7835 18.0035 82.5998 18.3145 82.3796 18.601C82.1594 18.8862 81.8816 19.1601 81.546 19.4227C81.2105 19.6853 80.7946 19.8922 80.2986 20.0434C79.8025 20.196 79.2587 20.2722 78.6672 20.2722C78.069 20.2722 77.4841 20.1595 76.9124 19.934C76.3395 19.7085 75.8275 19.3949 75.3765 18.993C74.9256 18.5924 74.5628 18.0864 74.2883 17.475C74.0124 16.8635 73.8745 16.201 73.8745 15.4875ZM76.5961 14.4569H80.5314C80.4889 14.0112 80.28 13.6127 79.9047 13.2612C79.5306 12.9097 79.0731 12.734 78.5319 12.734C78.0133 12.734 77.5823 12.8951 77.2387 13.2174C76.8952 13.5411 76.681 13.9542 76.5961 14.4569ZM84.8665 13.2851H83.5753V11.0747H84.8665V8.22575H87.4787V11.0747H89.2653V13.2851H87.4787V15.8416C87.4787 16.0989 87.484 16.2879 87.4946 16.4086C87.5265 17.1169 87.7234 17.526 88.0855 17.6361C88.1956 17.6786 88.3123 17.7024 88.4357 17.7077C88.559 17.7131 88.6903 17.7077 88.8296 17.6918C88.9676 17.6759 89.0577 17.668 89.1002 17.668L89.51 19.9579C89.4676 19.9579 89.2076 19.9917 88.7301 20.0593C88.4052 20.1071 88.1061 20.131 87.8329 20.131C87.7069 20.131 87.5888 20.1257 87.4787 20.1151C85.8367 19.9267 84.9766 18.8511 84.8983 16.8881C84.8877 16.6732 84.8824 16.3403 84.8824 15.8893L84.8665 13.2851ZM93.5766 20.1151H90.9484V10.7982H93.5766V20.1151ZM90.9882 7.91936C91.0824 7.69389 91.2542 7.50223 91.5035 7.3444C91.7529 7.18656 92.0221 7.10764 92.3113 7.10764C92.6415 7.10764 92.9744 7.18921 93.31 7.35235C93.4572 7.672 93.5308 8.02083 93.5308 8.39884C93.5308 8.77154 93.4572 9.12567 93.31 9.46123C92.9638 9.61376 92.5964 9.69003 92.2078 9.69003C91.8563 9.69003 91.5234 9.61376 91.2091 9.46123C91.0618 8.92009 90.9882 8.40613 90.9882 7.91936ZM94.7962 15.5034C94.7962 14.7434 94.9759 14.0199 95.3353 13.3328C95.6947 12.6458 96.1789 12.0761 96.7877 11.6238C97.3964 11.1729 98.055 10.8977 98.7632 10.7982L99.006 10.7504C99.116 10.7412 99.2367 10.7365 99.368 10.7365C99.5524 10.7365 99.7547 10.7465 99.9748 10.7664C100.673 10.8247 101.279 10.9918 101.793 11.2677C102.307 11.5423 102.634 11.8055 102.776 12.0575C102.849 12.3308 102.885 12.6531 102.885 13.0244C102.88 13.0404 102.878 13.0536 102.878 13.0642C102.878 13.4529 102.844 13.736 102.776 13.9138L100.745 13.687L100.619 13.4422C100.573 13.3799 100.518 13.3169 100.454 13.2532C100.197 13.1325 99.9059 13.0722 99.5809 13.0722C99.4867 13.0722 99.3873 13.0775 99.2825 13.0881C98.752 13.177 98.3216 13.4383 97.9913 13.872C97.661 14.3044 97.4933 14.8429 97.488 15.4875C97.488 16.1281 97.6531 16.6619 97.9833 17.089C98.3136 17.5174 98.7467 17.7787 99.2825 17.8729C99.3926 17.8941 99.5027 17.9021 99.6127 17.8968C99.8435 17.8968 100.082 17.857 100.329 17.7774C100.848 17.6726 101.254 17.4266 101.549 17.0393L103.224 18.1633C103.073 18.426 102.826 18.7277 102.486 19.0686C102.255 19.2887 101.938 19.4943 101.537 19.6853C101.135 19.8776 100.693 20.0156 100.212 20.0991C99.8853 20.1721 99.5677 20.2086 99.2586 20.2086C99.0902 20.2086 98.925 20.1986 98.7632 20.1787C97.677 20.0209 96.7445 19.4897 95.966 18.5851C95.1861 17.6792 94.7962 16.652 94.7962 15.5034Z" fill="white"/>
<path d="M10.5584 11.6844H1.45233C1.11143 11.6844 0.809128 11.904 0.703618 12.2284C0.598194 12.5524 0.713827 12.9079 0.989523 13.1082L8.97836 18.9125L5.14923 29.1836C11.0945 25.0377 15.3364 20.8846 16.2254 19.7498C18.4907 16.858 23.1513 9.30646 15.127 0.664701C7.34982 9.04022 11.2384 15.9949 13.6687 18.9487" fill="url(#paint0_linear_99_6141)"/>
<path d="M1.4524 12.3492C1.39915 12.3492 1.35241 12.383 1.33578 12.4339C1.31938 12.4845 1.33728 12.5395 1.38042 12.5707L9.36924 18.3746C9.61069 18.5502 9.70556 18.865 9.60123 19.1447L6.53412 27.3723C11.626 23.615 15.0355 20.1908 15.7021 19.3401C18.3495 15.9605 21.7181 9.23376 15.1264 1.65802C11.9195 5.32561 11.003 8.67326 11.1974 11.5C11.2142 11.5584 11.2232 11.6203 11.2232 11.6845C11.2232 11.711 11.2217 11.7371 11.2187 11.7626C11.4907 14.6584 12.9162 16.9878 14.1823 18.5264C14.4154 18.8097 14.3747 19.2287 14.0911 19.4619C13.8078 19.6954 13.3887 19.6544 13.1556 19.3709C12.0357 18.0099 10.4045 15.5447 9.97276 12.3492H1.4524ZM5.14944 29.8486C5.00532 29.8486 4.86178 29.8018 4.74206 29.7094C4.51225 29.5313 4.42497 29.2241 4.52637 28.9515L8.1792 19.1535L0.598856 13.6461C0.0883846 13.275 -0.123299 12.6227 0.0716697 12.0228C0.266703 11.4229 0.821476 11.0197 1.4524 11.0197H9.86757C9.79577 7.89788 10.9394 4.19775 14.6401 0.212557C14.7656 0.0770855 14.9423 3.8147e-05 15.127 3.8147e-05C15.3119 3.8147e-05 15.4883 0.0770855 15.6142 0.212557C19.2199 4.09545 20.7606 8.21334 20.1937 12.4517C19.8395 15.1006 18.6804 17.694 16.7488 20.1599C15.6977 21.5012 11.3282 25.685 5.5294 29.729C5.4152 29.8088 5.28204 29.8486 5.14944 29.8486Z" fill="#004821"/>
<path d="M30.1854 12.0241C29.9904 11.4243 29.4355 11.021 28.8048 11.021H21.2382C21.2292 11.4626 21.1982 11.9058 21.1462 12.3505H28.8048C28.8578 12.3505 28.9047 12.3843 28.9212 12.4353C28.9375 12.4858 28.9199 12.5406 28.8767 12.572L20.8881 18.3759C20.655 18.5453 20.5574 18.8452 20.6467 19.1192L23.6979 28.5104C23.7142 28.5609 23.6964 28.6159 23.6534 28.647C23.6269 28.6671 23.5997 28.6709 23.5815 28.6709C23.5633 28.6709 23.5361 28.6671 23.5096 28.6474L15.5208 22.8433C15.5123 22.8373 15.5032 22.8336 15.4947 22.8281C15.2057 23.1059 14.8914 23.4008 14.5542 23.7109C14.5995 23.7901 14.6606 23.8618 14.7392 23.9185L22.7278 29.7229C22.9775 29.9044 23.2727 30 23.5815 30C23.8899 30 24.1852 29.9045 24.4352 29.7229C24.9452 29.3518 25.1571 28.6994 24.9621 28.0999L22.06 19.1679L29.658 13.6475C30.1685 13.2766 30.3806 12.6242 30.1854 12.0241Z" fill="#004821"/>
<path d="M17.4841 20.7351C17.1407 21.1731 16.4563 21.904 15.4946 22.8281C15.5032 22.8336 15.5123 22.8373 15.5207 22.8433L23.5095 28.6474C23.536 28.667 23.5632 28.6709 23.5814 28.6709C23.5996 28.6709 23.6268 28.667 23.6533 28.647C23.6963 28.6159 23.7141 28.5609 23.6978 28.5104L20.6466 19.1192C20.5574 18.8452 20.655 18.5453 20.888 18.3759L28.8766 12.572C28.9198 12.5405 28.9374 12.4857 28.9211 12.4352C28.9046 12.3843 28.8578 12.3505 28.8047 12.3505H21.1461C21.1371 12.4256 21.129 12.5009 21.1192 12.5765C20.7425 15.3921 19.5194 18.137 17.4841 20.7351Z" fill="url(#paint1_linear_99_6141)"/>
<path d="M15.1289 10.2559C14.9927 10.2559 14.8568 10.2039 14.7528 10.1001C14.5453 9.89246 14.5453 9.55581 14.7528 9.34779L18.2874 5.81331C18.495 5.60593 18.8314 5.60593 19.0394 5.81331C19.247 6.02112 19.247 6.35777 19.0394 6.56558L15.505 10.1001C15.4011 10.2039 15.2651 10.2559 15.1289 10.2559Z" fill="#004821"/>
<path d="M15.1289 15.7402C14.9927 15.7402 14.8568 15.6884 14.7528 15.5846C14.5453 15.377 14.5453 15.0402 14.7528 14.8326L19.3615 10.224C19.5689 10.0164 19.9058 10.0164 20.1132 10.224C20.3212 10.4316 20.3212 10.7682 20.1132 10.976L15.505 15.5846C15.4011 15.6884 15.2651 15.7402 15.1289 15.7402Z" fill="#004821"/>
<path d="M15.1284 17.6797C14.8348 17.6797 14.5967 17.4417 14.5967 17.1479V1.10328C14.5967 0.80965 14.8348 0.571451 15.1284 0.571451C15.4221 0.571451 15.6602 0.80965 15.6602 1.10328V17.1479C15.6602 17.4417 15.4221 17.6797 15.1284 17.6797Z" fill="#004821"/>
<defs>
<linearGradient id="paint0_linear_99_6141" x1="0.665039" y1="29.1836" x2="0.665039" y2="0.655244" gradientUnits="userSpaceOnUse">
<stop stop-color="#B4EC51"/>
<stop offset="1" stop-color="#429321"/>
</linearGradient>
<linearGradient id="paint1_linear_99_6141" x1="15.4946" y1="28.6709" x2="15.4946" y2="12.3415" gradientUnits="userSpaceOnUse">
<stop stop-color="#B4EC51"/>
<stop offset="1" stop-color="#429321"/>
</linearGradient>
</defs>
</svg>
