<svg width="31" height="30" viewBox="0 0 31 30" fill="none" xmlns="http://www.w3.org/2000/svg">
<path d="M10.5584 11.6844H1.45233C1.11143 11.6844 0.809128 11.904 0.703618 12.2284C0.598194 12.5524 0.713827 12.9079 0.989523 13.1082L8.97836 18.9125L5.14923 29.1836C11.0945 25.0377 15.3364 20.8846 16.2254 19.7498C18.4907 16.858 23.1513 9.30646 15.127 0.664701C7.34982 9.04022 11.2384 15.9949 13.6687 18.9487" fill="url(#paint0_linear_1_76)"/>
<path d="M1.4524 12.3491C1.39915 12.3491 1.35241 12.3829 1.33578 12.4339C1.31938 12.4844 1.33728 12.5394 1.38042 12.5706L9.36924 18.3745C9.61069 18.5501 9.70556 18.8649 9.60123 19.1447L6.53412 27.3723C11.626 23.6149 15.0355 20.1908 15.7021 19.34C18.3495 15.9604 21.7181 9.2337 15.1264 1.65796C11.9195 5.32555 11.003 8.67319 11.1974 11.4999C11.2142 11.5583 11.2232 11.6202 11.2232 11.6844C11.2232 11.7109 11.2217 11.737 11.2187 11.7625C11.4907 14.6584 12.9162 16.9877 14.1823 18.5263C14.4154 18.8097 14.3747 19.2286 14.0911 19.4618C13.8078 19.6953 13.3887 19.6544 13.1556 19.3708C12.0357 18.0099 10.4045 15.5446 9.97276 12.3491H1.4524ZM5.14944 29.8486C5.00532 29.8486 4.86178 29.8017 4.74206 29.7093C4.51225 29.5312 4.42497 29.2241 4.52637 28.9515L8.1792 19.1534L0.598856 13.6461C0.0883846 13.275 -0.123299 12.6227 0.0716697 12.0228C0.266703 11.4229 0.821476 11.0197 1.4524 11.0197H9.86757C9.79577 7.89782 10.9394 4.19769 14.6401 0.212496C14.7656 0.0770245 14.9423 -2.28882e-05 15.127 -2.28882e-05C15.3119 -2.28882e-05 15.4883 0.0770245 15.6142 0.212496C19.2199 4.09539 20.7606 8.21328 20.1937 12.4517C19.8395 15.1005 18.6804 17.694 16.7488 20.1598C15.6977 21.5011 11.3282 25.685 5.5294 29.7289C5.4152 29.8088 5.28204 29.8486 5.14944 29.8486Z" fill="#004821"/>
<path d="M30.1854 12.0241C29.9904 11.4243 29.4355 11.021 28.8048 11.021H21.2382C21.2292 11.4626 21.1982 11.9058 21.1462 12.3505H28.8048C28.8578 12.3505 28.9047 12.3843 28.9212 12.4353C28.9375 12.4858 28.9199 12.5406 28.8767 12.572L20.8881 18.3759C20.655 18.5453 20.5574 18.8452 20.6467 19.1192L23.6979 28.5104C23.7142 28.5609 23.6964 28.6159 23.6534 28.647C23.6269 28.6671 23.5997 28.6709 23.5815 28.6709C23.5633 28.6709 23.5361 28.6671 23.5096 28.6474L15.5208 22.8433C15.5123 22.8373 15.5032 22.8336 15.4947 22.8281C15.2057 23.1059 14.8914 23.4008 14.5542 23.7109C14.5995 23.7901 14.6606 23.8618 14.7392 23.9185L22.7278 29.7229C22.9775 29.9044 23.2727 30 23.5815 30C23.8899 30 24.1852 29.9045 24.4352 29.7229C24.9452 29.3518 25.1571 28.6994 24.9621 28.0999L22.06 19.1679L29.658 13.6475C30.1685 13.2766 30.3806 12.6242 30.1854 12.0241Z" fill="#004821"/>
<path d="M17.4841 20.7351C17.1407 21.1732 16.4563 21.904 15.4946 22.8281C15.5032 22.8337 15.5123 22.8373 15.5207 22.8434L23.5095 28.6475C23.536 28.6671 23.5632 28.671 23.5814 28.671C23.5996 28.671 23.6268 28.6671 23.6533 28.6471C23.6963 28.6159 23.7141 28.5609 23.6978 28.5104L20.6466 19.1192C20.5574 18.8453 20.655 18.5453 20.888 18.3759L28.8766 12.572C28.9198 12.5406 28.9374 12.4858 28.9211 12.4353C28.9046 12.3843 28.8578 12.3505 28.8047 12.3505H21.1461C21.1371 12.4257 21.129 12.501 21.1192 12.5765C20.7425 15.3921 19.5194 18.1371 17.4841 20.7351Z" fill="url(#paint1_linear_1_76)"/>
<path d="M15.1289 10.2559C14.9927 10.2559 14.8568 10.2039 14.7528 10.1001C14.5453 9.89246 14.5453 9.55581 14.7528 9.34779L18.2874 5.81331C18.495 5.60593 18.8314 5.60593 19.0394 5.81331C19.247 6.02112 19.247 6.35777 19.0394 6.56558L15.505 10.1001C15.4011 10.2039 15.2651 10.2559 15.1289 10.2559Z" fill="#004821"/>
<path d="M15.1289 15.7406C14.9927 15.7406 14.8568 15.6888 14.7528 15.585C14.5453 15.3774 14.5453 15.0406 14.7528 14.833L19.3615 10.2243C19.5689 10.0167 19.9058 10.0167 20.1132 10.2243C20.3212 10.4319 20.3212 10.7686 20.1132 10.9764L15.505 15.585C15.4011 15.6888 15.2651 15.7406 15.1289 15.7406Z" fill="#004821"/>
<path d="M15.1284 17.6802C14.8348 17.6802 14.5967 17.4422 14.5967 17.1483V1.10377C14.5967 0.810139 14.8348 0.571939 15.1284 0.571939C15.4221 0.571939 15.6602 0.810139 15.6602 1.10377V17.1483C15.6602 17.4422 15.4221 17.6802 15.1284 17.6802Z" fill="#004821"/>
<defs>
<linearGradient id="paint0_linear_1_76" x1="0.665039" y1="29.1836" x2="0.665039" y2="0.655244" gradientUnits="userSpaceOnUse">
<stop stop-color="#B4EC51"/>
<stop offset="1" stop-color="#429321"/>
</linearGradient>
<linearGradient id="paint1_linear_1_76" x1="15.4946" y1="28.671" x2="15.4946" y2="12.3415" gradientUnits="userSpaceOnUse">
<stop stop-color="#B4EC51"/>
<stop offset="1" stop-color="#429321"/>
</linearGradient>
</defs>
</svg>
