<svg width="18" height="18" viewBox="0 0 18 18" fill="none" xmlns="http://www.w3.org/2000/svg">
<path fill-rule="evenodd" clip-rule="evenodd" d="M0.263604 0.263604C0.615076 -0.087868 1.18492 -0.087868 1.5364 0.263604L8.07173 6.79894C8.0738 6.80099 8.07594 6.80313 8.078 6.8052L11.1946 9.92179C11.1967 9.92392 11.199 9.92616 11.2011 9.9283L17.7364 16.4636C18.0879 16.8151 18.0879 17.3849 17.7364 17.7364C17.3849 18.0879 16.8151 18.0879 16.4636 17.7364L13.267 14.5397C11.9931 15.3312 10.5241 15.7661 9.01471 15.7908L9 15.7909C6.06317 15.7909 3.81676 14.1144 2.36046 12.561C1.62411 11.7756 1.06243 10.9935 0.684732 10.4087C0.495325 10.1155 0.350716 9.86948 0.252212 9.69436C0.202926 9.60674 0.165082 9.53668 0.138848 9.4871C0.125728 9.46231 0.115502 9.44262 0.108192 9.4284L0.0994123 9.41122L0.0966653 9.40578L0.0957032 9.40386C0.0957032 9.40386 0.0950156 9.40249 0.9 9L0.0950156 9.40249C-0.0357648 9.14093 -0.0313105 8.83214 0.10696 8.57446C0.921821 7.05589 1.99978 5.69737 3.28806 4.56085L0.263604 1.5364C-0.0878679 1.18492 -0.0878679 0.615076 0.263604 0.263604ZM4.5637 5.83649C3.52005 6.74083 2.63051 7.81002 1.93079 9.00213C2.00278 9.12404 2.09158 9.26926 2.1968 9.43218C2.53246 9.95191 3.0293 10.6426 3.67363 11.3299C4.97726 12.7204 6.77831 13.9881 8.99266 13.9909C10.0303 13.9728 11.0433 13.7072 11.9499 13.2227L10.4838 11.7566C10.3951 11.8071 10.3039 11.8533 10.2103 11.895C9.8289 12.065 9.4172 12.1563 8.99974 12.1637C8.58228 12.1711 8.16762 12.0943 7.78048 11.9379C7.39335 11.7815 7.04167 11.5488 6.74644 11.2536C6.4512 10.9583 6.21846 10.6067 6.06209 10.2195C5.90572 9.83238 5.82892 9.41772 5.83629 9.00026C5.84365 8.5828 5.93503 8.1711 6.10496 7.78972C6.14665 7.69614 6.19287 7.60486 6.24339 7.51618L4.5637 5.83649ZM9.46732 4.02797L15.4255 9.99162C15.6555 9.6709 15.8705 9.33958 16.0697 8.99872C15.9976 8.87663 15.9087 8.73112 15.8032 8.56782C15.4675 8.04809 14.9707 7.35737 14.3264 6.67009C13.1142 5.37713 11.472 4.19039 9.46732 4.02797ZM17.1 9L17.905 8.59751C18.0355 8.85861 18.0313 9.16682 17.8937 9.42427C17.4172 10.3157 16.8489 11.155 16.1981 11.9285C16.0357 12.1214 15.7998 12.2374 15.5479 12.2482C15.2959 12.2589 15.051 12.1635 14.8728 11.9851L6.81695 3.92192C6.58612 3.69088 6.49856 3.35292 6.58818 3.03886C6.6778 2.7248 6.93052 2.48394 7.24851 2.4095C7.82296 2.27504 8.41109 2.20779 9.00107 2.20909L9.00211 2.20909L9 3.10909V2.20909L9.00107 2.20909C11.9374 2.2095 14.1834 3.8858 15.6395 5.439C16.3759 6.22445 16.9376 7.00645 17.3153 7.59127C17.5047 7.88455 17.6493 8.13052 17.7478 8.30564C17.7971 8.39326 17.8349 8.46332 17.8612 8.5129C17.8743 8.53769 17.8845 8.55738 17.8918 8.5716L17.9006 8.58878L17.9033 8.59422L17.9043 8.59613L17.905 8.59751C17.905 8.59751 17.905 8.59751 17.1 9Z" fill="#BDBDBD"/>
</svg>
