<svg width="18" height="14" viewBox="0 0 18 14" fill="none" xmlns="http://www.w3.org/2000/svg">
<path fill-rule="evenodd" clip-rule="evenodd" d="M2.14607 6.81818C2.21021 6.92545 2.28631 7.04877 2.37413 7.18475C2.70305 7.69404 3.18976 8.3706 3.82045 9.04333C5.10006 10.4083 6.85405 11.6364 9 11.6364C11.1459 11.6364 12.8999 10.4083 14.1796 9.04333C14.8102 8.3706 15.297 7.69404 15.6259 7.18475C15.7137 7.04877 15.7898 6.92545 15.8539 6.81818C15.7898 6.71092 15.7137 6.58759 15.6259 6.45162C15.297 5.94232 14.8102 5.26577 14.1796 4.59303C12.8999 3.22811 11.1459 2 9 2C6.85405 2 5.10006 3.22811 3.82045 4.59303C3.18976 5.26577 2.70305 5.94232 2.37413 6.45162C2.28631 6.58759 2.21021 6.71092 2.14607 6.81818ZM17 6.81818C17.8944 6.37097 17.8943 6.37064 17.8941 6.37029L17.8927 6.36745L17.8898 6.3618L17.8808 6.34426C17.8734 6.32984 17.8631 6.31001 17.85 6.28512C17.8236 6.23536 17.7858 6.16533 17.7366 6.07792C17.6384 5.90323 17.4944 5.65834 17.3059 5.36657C16.9303 4.78495 16.3716 4.00696 15.6386 3.22515C14.191 1.68099 11.945 0 9 0C6.05504 0 3.80903 1.68099 2.36137 3.22515C1.62843 4.00696 1.06968 4.78495 0.694052 5.36657C0.505617 5.65834 0.36163 5.90323 0.263368 6.07792C0.214199 6.16533 0.176366 6.23536 0.150036 6.28512C0.136867 6.31001 0.126565 6.32984 0.11915 6.34426L0.110192 6.3618L0.107339 6.36745L0.10632 6.36948C0.106145 6.36983 0.105573 6.37097 1 6.81818L0.105573 6.37097C-0.0351909 6.6525 -0.0351909 6.98387 0.105573 7.2654L1 6.81818C0.105573 7.2654 0.105397 7.26505 0.105573 7.2654L0.10632 7.26689L0.107339 7.26892L0.110192 7.27456L0.11915 7.2921C0.126565 7.30652 0.136867 7.32636 0.150036 7.35124C0.176366 7.401 0.214199 7.47103 0.263368 7.55844C0.36163 7.73313 0.505617 7.97803 0.694052 8.2698C1.06968 8.85142 1.62843 9.6294 2.36137 10.4112C3.80903 11.9554 6.05504 13.6364 9 13.6364C11.945 13.6364 14.191 11.9554 15.6386 10.4112C16.3716 9.6294 16.9303 8.85142 17.3059 8.2698C17.4944 7.97803 17.6384 7.73313 17.7366 7.55844C17.7858 7.47103 17.8236 7.401 17.85 7.35124C17.8631 7.32636 17.8734 7.30652 17.8808 7.2921L17.8898 7.27456L17.8927 7.26892L17.8937 7.26689C17.8939 7.26654 17.8944 7.2654 17 6.81818ZM17 6.81818L17.8944 7.2654C18.0352 6.98387 18.0349 6.65182 17.8941 6.37029L17 6.81818ZM9 5.63636C8.3473 5.63636 7.81818 6.16548 7.81818 6.81818C7.81818 7.47088 8.3473 8 9 8C9.6527 8 10.1818 7.47088 10.1818 6.81818C10.1818 6.16548 9.6527 5.63636 9 5.63636ZM5.81818 6.81818C5.81818 5.06091 7.24273 3.63636 9 3.63636C10.7573 3.63636 12.1818 5.06091 12.1818 6.81818C12.1818 8.57545 10.7573 10 9 10C7.24273 10 5.81818 8.57545 5.81818 6.81818Z" fill="#BDBDBD"/>
</svg>
